<?xml version="1.0" standalone="no"?>
<!DOCTYPE svg PUBLIC "-//W3C//DTD SVG 20010904//EN"
 "http://www.w3.org/TR/2001/REC-SVG-20010904/DTD/svg10.dtd">
<svg version="1.0" xmlns="http://www.w3.org/2000/svg"
 width="500.000000pt" height="500.000000pt" viewBox="0 0 500.000000 500.000000"
 preserveAspectRatio="xMidYMid meet">

<g transform="translate(0.000000,500.000000) scale(0.100000,-0.100000)"
fill="#000000" stroke="none">
<path d="M2377 3636 c-61 -22 -129 -81 -158 -138 -16 -31 -25 -38 -49 -38 -17
0 -38 -4 -48 -9 -9 -6 -30 -13 -46 -16 -19 -4 -32 -15 -39 -34 -6 -16 -22 -32
-38 -39 -40 -14 -55 -57 -35 -98 14 -30 18 -32 83 -37 37 -3 83 -5 102 -4 32
2 34 0 51 -50 9 -29 22 -59 29 -67 23 -27 79 -46 140 -46 l60 0 3 -96 c2 -79
6 -99 21 -108 28 -18 51 5 57 54 5 41 7 44 51 56 88 26 175 127 188 219 l6 40
105 2 c101 1 105 2 128 28 17 20 22 35 17 54 -6 27 -39 61 -59 61 -6 0 -19 13
-28 30 -10 17 -28 32 -45 35 -15 4 -36 10 -45 16 -10 5 -31 9 -47 9 -22 0 -32
6 -37 22 -11 37 -97 120 -149 144 -58 27 -156 32 -218 10z m51 -438 l3 -58
-59 0 c-49 0 -62 4 -81 24 -34 37 -25 57 29 61 28 2 49 10 55 20 6 8 19 14 30
13 17 -3 20 -12 23 -60z m162 41 c19 -14 37 -20 55 -17 17 4 28 1 32 -8 7 -18
-30 -94 -62 -128 -23 -24 -80 -56 -100 -56 -7 0 -6 215 2 223 12 13 44 7 73
-14z"/>
<path d="M1955 3058 c-58 -21 -101 -56 -125 -101 -19 -36 -31 -47 -56 -52 -18
-3 -38 -13 -45 -22 -8 -8 -31 -26 -51 -39 -21 -14 -38 -30 -38 -37 0 -7 -9
-18 -20 -25 -28 -17 -27 -73 1 -98 18 -16 39 -19 147 -21 123 -2 127 -3 145
-28 28 -38 95 -72 165 -84 34 -6 90 -16 125 -22 34 -6 81 -22 105 -35 77 -45
142 -176 129 -259 -8 -47 -38 -83 -96 -117 -27 -15 -59 -40 -71 -55 l-22 -28
-236 -5 -237 -5 -3 -28 c-5 -38 14 -57 53 -57 31 0 33 -2 43 -56 15 -71 61
-157 117 -219 37 -40 45 -55 45 -87 l0 -38 64 0 c41 0 68 5 75 13 8 11 73 14
304 16 254 2 296 0 307 -14 9 -10 31 -15 71 -15 l59 0 0 36 c0 29 8 44 43 78
47 45 127 192 127 231 0 42 11 55 45 55 31 0 65 25 65 48 0 6 -7 18 -16 26
-13 14 -49 16 -233 16 l-217 0 -51 49 c-36 34 -48 53 -42 62 20 32 9 77 -32
130 -36 49 -40 59 -36 100 5 55 42 110 92 133 18 9 89 25 158 35 141 21 187
39 224 87 l25 34 112 0 c136 0 179 16 184 67 2 21 -3 38 -16 51 -10 10 -21 26
-25 35 -4 10 -19 23 -34 30 -15 6 -36 22 -46 34 -10 12 -33 25 -52 29 -22 4
-37 13 -41 26 -21 68 -132 138 -219 138 -67 0 -149 -42 -183 -93 -16 -25 -36
-40 -54 -44 -16 -3 -38 -17 -48 -32 -11 -14 -29 -37 -40 -49 -28 -33 -25 -66
6 -91 23 -18 41 -21 125 -21 l99 0 0 -49 c0 -30 -6 -55 -14 -64 -8 -8 -46 -17
-88 -21 -84 -9 -128 -25 -180 -67 l-38 -30 0 90 c0 88 -1 91 -25 97 -44 11
-55 -9 -55 -99 l0 -80 -23 21 c-36 34 -106 60 -182 67 -88 9 -105 23 -105 86
l0 47 109 4 c90 2 113 6 130 22 27 25 27 60 -1 88 -13 13 -28 32 -33 43 -6 11
-30 27 -53 35 -23 8 -45 22 -48 32 -8 27 -80 84 -123 96 -47 14 -106 14 -146
0z m85 -368 c0 -56 -9 -61 -46 -25 -24 24 -24 26 -8 50 9 14 25 25 35 25 16 0
19 -8 19 -50z m930 20 c11 -26 10 -33 -4 -49 -10 -11 -26 -21 -37 -24 -17 -5
-19 0 -19 49 0 50 2 54 24 54 17 0 27 -9 36 -30z m38 -802 l-3 -33 -530 0
-530 0 -3 33 -3 32 536 0 536 0 -3 -32z m-48 -139 c0 -6 -5 -19 -10 -30 -10
-18 -25 -19 -335 -19 -281 0 -326 2 -339 16 -17 17 -20 27 -9 37 11 12 693 8
693 -4z"/>
<path d="M2082 1148 l3 -203 35 -3 c19 -2 73 -1 120 3 78 7 87 10 117 40 28
28 33 40 33 79 0 36 -6 52 -25 71 -13 14 -20 25 -14 25 5 0 17 16 25 37 21 49
11 95 -27 127 -29 25 -36 26 -150 26 l-119 0 2 -202z m208 101 c19 -34 -12
-59 -72 -59 l-48 0 0 40 0 40 55 0 c45 0 56 -4 65 -21z m-12 -145 c24 -17 29
-43 10 -62 -7 -7 -36 -12 -65 -12 l-53 0 0 45 0 45 43 0 c23 0 53 -7 65 -16z"/>
<path d="M2570 1310 l0 -40 65 0 65 0 0 -165 0 -165 40 0 40 0 0 165 0 165 60
0 60 0 0 40 0 40 -165 0 -165 0 0 -40z"/>
<path d="M2452 1188 c-18 -18 -14 -53 9 -74 19 -17 23 -17 47 -3 32 17 39 50
17 73 -19 19 -56 21 -73 4z"/>
</g>
</svg>
